<svg width="238" height="265" viewBox="0 0 238 265" fill="none" xmlns="http://www.w3.org/2000/svg">
<path d="M220.608 182.771C223.789 186.632 227.268 189.526 231.335 192.396C232.538 193.246 233.728 194.1 235.067 194.724C235.769 195.051 235.9 195.2 235 195.501C228.913 197.536 222.746 198.592 217.013 201.71" stroke="#FFF9F3" stroke-width="3" stroke-linecap="round"/>
<path d="M74.4996 32.9999C74.4996 32.9999 17.9679 43.1123 13.6225 70.7457C12.5038 77.8601 8.82156 84.2983 14.3667 89.1721C21.7851 95.6923 35.4337 94.4069 44.4221 93.8887C56.7387 93.1786 69.3332 88.9729 81.6985 90.0272C88.6723 90.6218 82.2878 100.998 80.9392 104.368C76.9379 114.367 70.1533 126.328 72.1422 137.512C74.6916 151.849 97.7911 154.944 108.54 158.342C147.305 170.594 186.264 182.213 225.214 193.86" stroke="#FFF9F3" stroke-width="3" stroke-linecap="round"/>
</svg>
