<svg width="198" height="215" viewBox="0 0 198 215" fill="none" xmlns="http://www.w3.org/2000/svg">
<path fill-rule="evenodd" clip-rule="evenodd" d="M8.78304 149.858C9.03495 149.068 9.87894 148.633 10.6681 148.885C16.8008 150.842 22.7494 153.036 28.5816 155.188C32.7631 156.73 36.8848 158.251 40.9717 159.646C50.8656 163.024 60.8727 165.793 72.0105 166.801C91.9477 168.607 112.242 166.161 130.006 156.746C139.169 151.89 148.126 144.146 154.049 134.898C159.964 125.66 162.793 115.027 159.953 104.272C158.512 98.8167 155.787 93.4956 152.151 88.6327C150.682 94.167 148.345 99.6076 144.957 104.869C136.932 117.332 122.647 118.199 110.785 113.031C98.9699 107.883 88.8468 96.4795 88.9695 83.437C89.0354 76.4217 91.8472 70.9761 96.4365 67.4456C100.991 63.942 107.156 62.4272 113.805 62.9363C124.506 63.7557 135.398 68.7762 144.269 76.0956C146.465 77.9079 148.546 79.8676 150.474 81.9479C152.811 66.5404 148.804 50.4668 142.413 35.5345C142.087 34.7729 142.44 33.8913 143.202 33.5653C143.963 33.2393 144.845 33.5925 145.171 34.3541C151.984 50.2709 156.323 67.9137 153.016 84.8688C157.619 90.5107 161.102 96.8761 162.853 103.506C165.963 115.283 162.811 126.777 156.575 136.516C150.345 146.244 140.98 154.325 131.411 159.397C112.994 169.157 92.0782 171.631 71.7399 169.789C60.2662 168.75 50.0053 165.9 40.0024 162.485C35.7419 161.03 31.5828 159.495 27.4031 157.952C21.6647 155.833 15.8876 153.7 9.75588 151.743C8.96668 151.491 8.53112 150.647 8.78304 149.858ZM149.78 85.6752C147.545 83.0704 145.05 80.6297 142.36 78.4096C133.861 71.3969 123.537 66.6903 113.576 65.9276C107.491 65.4616 102.108 66.8679 98.2657 69.8234C94.4589 72.7519 92.0273 77.3034 91.9693 83.4652C91.8616 94.9185 100.869 105.439 111.983 110.281C123.051 115.102 135.494 114.024 142.435 103.245C146.077 97.5878 148.445 91.6945 149.78 85.6752Z" fill="#FFF9F3"/>
<path fill-rule="evenodd" clip-rule="evenodd" d="M14.8847 158.091C14.3572 158.73 13.4117 158.82 12.773 158.292C12.7063 158.237 12.6105 158.159 12.4894 158.059C11.5638 157.3 9.15939 155.327 6.96587 153.369C5.73153 152.268 4.52506 151.137 3.67915 150.212C3.26715 149.762 2.87745 149.293 2.62125 148.863C2.50054 148.66 2.33781 148.35 2.27252 147.983C2.20213 147.587 2.21923 146.862 2.85162 146.336C3.75148 145.588 4.94482 145.364 5.93386 145.286C6.96501 145.204 8.09547 145.263 9.07153 145.316L9.15117 145.321C10.1501 145.375 10.9605 145.42 11.5855 145.372C11.834 145.353 11.9928 145.322 12.0851 145.296C12.5312 144.723 13.3401 144.544 13.995 144.908C14.7194 145.309 14.981 146.222 14.5792 146.947C14.238 147.562 13.693 147.895 13.2238 148.076C12.7626 148.253 12.2649 148.328 11.8165 148.363C10.9861 148.427 9.9921 148.372 9.0893 148.322C9.02813 148.318 8.96739 148.315 8.90714 148.312C7.89812 148.256 6.96844 148.213 6.17108 148.276C6.10828 148.281 6.04793 148.287 5.98993 148.293C6.72736 149.085 7.7967 150.09 8.96335 151.131C11.104 153.041 13.4523 154.969 14.388 155.737C14.5129 155.839 14.6126 155.921 14.6833 155.979C15.3221 156.507 15.4122 157.452 14.8847 158.091ZM5.17552 147.285C5.17567 147.285 5.17733 147.288 5.18003 147.294C5.17671 147.288 5.17536 147.285 5.17552 147.285Z" fill="#FFF9F3"/>
</svg>
