<svg width="191" height="239" viewBox="0 0 191 239" fill="none" xmlns="http://www.w3.org/2000/svg">
<path d="M140.5 25.9994C161.563 32.4994 152.42 61.9999 161.563 78.3245C170.325 93.9671 162.721 118.691 152.42 134.335C144.533 146.314 127.235 149.896 113.893 147.29C104.026 145.363 90.5745 134.605 80.435 137.149C67.7254 140.338 57.9797 158.385 51.5734 168.317C47.2039 175.092 42.1064 187.491 33.9699 190.8C26.0086 194.037 18.8708 192.507 11.0376 189.581" stroke="#FFF9F3" stroke-width="3" stroke-linecap="round"/>
<path d="M13.0957 197.837C11.1558 195.281 8.43605 192.301 5.92351 190.298C4.99279 189.556 4.06683 188.808 3.11317 188.096C2.77943 187.846 1.81277 187.281 2.22441 187.217C6.07752 186.617 12.757 185.024 16.5169 183.889" stroke="#FFF9F3" stroke-width="3" stroke-linecap="round"/>
</svg>
