<svg width="123" height="220" viewBox="0 0 123 220" fill="none" xmlns="http://www.w3.org/2000/svg">
<path d="M29.179 1.99998C30.3582 18.7053 22.5444 35 16.0443 50.5C9.11054 67.0341 -0.712112 87.2425 2.69867 105.661C5.31019 119.763 19.8558 129.787 33.1618 132.572C43.0013 134.631 59.5772 129.946 67.9306 136.231C78.4016 144.11 80.3664 164.526 82.4087 176.167C83.8017 184.107 83.679 197.513 89.8899 203.724C95.967 209.801 103.138 211.166 111.493 211.514" stroke="#FFF9F3" stroke-width="3" stroke-linecap="round"/>
<path d="M106.388 218.321C109.169 216.72 112.833 215.031 115.926 214.163C117.072 213.841 118.216 213.511 119.371 213.226C119.776 213.126 120.886 212.98 120.532 212.761C117.215 210.711 111.68 206.647 108.657 204.14" stroke="#FFF9F3" stroke-width="3" stroke-linecap="round"/>
</svg>
