<svg width="180" height="206" viewBox="0 0 180 206" fill="none" xmlns="http://www.w3.org/2000/svg">
<path fill-rule="evenodd" clip-rule="evenodd" d="M65.2052 20.7325C65.6566 21.2067 65.6381 21.9571 65.1639 22.4085C51.4595 35.4538 40.867 53.2023 36.0032 71.5707C30.9108 90.8025 31.9272 116.066 39.7186 134.361C49.2756 156.802 71.0365 171.507 95.1117 173.799C106.45 174.878 114.684 173.747 125.727 170.918C135.97 168.294 144.769 163.884 153.899 159.307C157.504 157.501 161.16 155.668 164.977 153.91C165.571 153.636 166.275 153.895 166.549 154.49C166.823 155.085 166.563 155.789 165.969 156.063C162.305 157.751 158.736 159.54 155.178 161.323C145.962 165.942 136.821 170.524 126.316 173.215C115.09 176.09 106.572 177.272 94.887 176.159C70.0198 173.791 47.4627 158.596 37.5372 135.29C29.5159 116.455 28.4998 90.6452 33.7113 70.9639C38.6886 52.1664 49.5112 34.035 63.5292 20.6912C64.0034 20.2398 64.7537 20.2583 65.2052 20.7325Z" fill="#FFF9F3"/>
<path fill-rule="evenodd" clip-rule="evenodd" d="M151.682 153.023C151.708 152.369 152.26 151.86 152.914 151.886C155.374 151.984 157.824 151.63 160.371 151.262C161.291 151.129 162.223 150.994 163.174 150.878C166.872 150.427 170.3 149.661 173.774 148.409C173.88 148.371 174.03 148.324 174.2 148.304C174.318 148.29 174.735 148.249 175.128 148.539C175.637 148.913 175.655 149.468 175.618 149.726C175.584 149.963 175.49 150.146 175.444 150.23C175.265 150.557 174.918 150.937 174.649 151.22C174.341 151.545 173.976 151.903 173.649 152.222C173.583 152.286 173.519 152.349 173.458 152.409C173.204 152.656 172.989 152.866 172.839 153.02C169.641 156.304 166.952 159.834 164.218 163.601C163.833 164.131 163.092 164.249 162.562 163.864C162.032 163.48 161.914 162.739 162.299 162.209C164.913 158.606 167.549 155.132 170.659 151.865C168.308 152.491 165.936 152.93 163.461 153.232C162.629 153.333 161.77 153.458 160.893 153.585C158.285 153.962 155.517 154.363 152.819 154.255C152.165 154.229 151.656 153.678 151.682 153.023ZM174.587 150.637C174.587 150.637 174.585 150.638 174.582 150.639C174.586 150.637 174.587 150.637 174.587 150.637Z" fill="#FFF9F3"/>
</svg>
